<?xml version="1.0" encoding="UTF-8" standalone="no"?>
<svg
   width="16"
   height="16"
   viewBox="0 0 16 16"
   fill="#424242"
   xmlns="http://www.w3.org/2000/svg"
   xmlns:svg="http://www.w3.org/2000/svg">
  <path d="M 9.0839844,0.76367188 C 7.1856805,0.76567303 5.4574254,1.6894349 4.640625,3.1386719 5.4227219,2.2192557 6.7559169,1.663513 8.1875,1.6601562 c 2.347667,7.79e-5 4.250604,1.4596376 4.25,3.2597657 -0.0054,1.4976435 -1.34126,2.7996886 -3.2382812,3.15625 L 9.6445312,7.4316406 C 8.417288,7.713509 6.9391357,7.0526036 6.5234375,5.6113281 L 6.0351562,7.7148438 C 5.4494561,7.4515864 4.9545256,7.0845743 4.5917969,6.6445312 4.9018912,7.2200143 5.3627411,7.728285 5.9394531,8.1308594 L 4.3183594,15.130859 8.5097656,9.0703125 c 0.1905234,0.019864 0.3822563,0.030299 0.5742188,0.03125 C 11.806142,9.1018245 14.013187,7.2358046 14.013672,4.9335938 14.014463,2.6306202 11.807044,0.76340972 9.0839844,0.76367188 Z M 9.0703125,2.9921875 C 7.9907299,2.9923377 7.1155485,3.8491586 7.1152344,4.90625 7.1155485,5.9633414 7.9907299,6.8201623 9.0703125,6.8203125 10.149895,6.8201625 11.025077,5.9633415 11.025391,4.90625 11.025077,3.8491585 10.149895,2.9923375 9.0703125,2.9921875 Z"
     />
</svg>
