<?xml version="1.0" encoding="UTF-8" standalone="no"?>
<svg width="16" height="16" viewBox="0 0 16 16" version="1.1"
   xml:space="preserve"
   xmlns="http://www.w3.org/2000/svg"
   xmlns:svg="http://www.w3.org/2000/svg">
   <path style="fill:#c5c5c5"
   d="M 8.0676624,1.0985327 C 7.8724246,1.0968571 7.6685649,1.1 7.4563343,1.1082983 2.940944,1.8977696 1.3399565,5.1794361 1.2141467,7.8192358 0.88882021,9.7307241 2.7323084,10.711788 4.3469593,9.1610327 5.1825987,8.7757053 5.9497974,8.4838088 6.9446155,9.5223608 7.6703511,10.623003 7.2134009,11.098046 7.030553,11.717674 5.4195636,13.457574 6.3284447,15.338265 8.3938343,15.041892 10.126219,15.103362 14.296981,14.047055 15.19071,9.1395484 15.373432,7.7772095 15.498868,5.2785137 12.803991,2.7918921 12.063955,2.2178905 10.996229,1.123667 8.0676624,1.0985327 Z M 7.4700061,2.2957984 c 0.6594821,0 1.1933594,0.5358185 1.1933594,1.1953124 0,0.6594822 -0.5338773,1.1933594 -1.1933594,1.1933594 -0.659494,0 -1.1933594,-0.5338772 -1.1933594,-1.1933594 0,-0.6594939 0.5338654,-1.1953124 1.1933594,-1.1953124 z m 3.9863289,1.671875 c 0.659505,0 1.195312,0.5338773 1.195312,1.1933593 0,0.6594941 -0.535807,1.1953125 -1.195312,1.1953125 -0.659507,0 -1.19336,-0.5358184 -1.19336,-1.1953125 0,-0.659482 0.533853,-1.1933593 1.19336,-1.1933593 z M 4.186803,5.1825171 c 0.659494,0 1.1933594,0.5338773 1.1933594,1.1933594 0,0.659494 -0.5338654,1.1953125 -1.1933594,1.1953125 -0.659482,0 -1.1953125,-0.5358185 -1.1953125,-1.1953125 0,-0.6594821 0.5358305,-1.1933594 1.1953125,-1.1933594 z m 8.187501,2.9570313 c 0.659625,0 1.193359,0.5362841 1.193359,1.1953124 h 0.002 c 0,0.6594821 -0.535807,1.1933602 -1.195312,1.1933602 -0.659507,0 -1.19336,-0.5338781 -1.19336,-1.1933602 0,-0.659494 0.533973,-1.1953125 1.19336,-1.1953124 z M 9.8801625,11.120018 c 0.6595055,0 1.1953125,0.535806 1.1953125,1.195312 0,0.659386 -0.535807,1.193359 -1.1953125,1.193359 -0.6595063,0 -1.1933595,-0.533973 -1.1933595,-1.193359 0,-0.659506 0.5338532,-1.195312 1.1933595,-1.195312 z" /></svg>
