<svg width="16" height="16" viewBox="0 0 16 16" fill="none" xmlns="http://www.w3.org/2000/svg">
<path fill-rule="evenodd" clip-rule="evenodd" d="M8 1.003C6.14348 1.003 4.363 1.74059 3.05 3.05334C1.73748 4.3661 1 6.14654 1 8.003V8.433C1.09 9.943 2.91 10.2231 4 9.13306C4.35648 8.81625 4.82054 8.64759 5.29724 8.66162C5.77395 8.67565 6.22729 8.87127 6.56451 9.2085C6.90174 9.54572 7.09736 9.99912 7.11139 10.4758C7.12542 10.9525 6.95682 11.4166 6.64001 11.7731C5.54001 12.9331 5.85 14.843 7.44 14.973H8.03998C9.89649 14.973 11.677 14.2356 12.9897 12.9229C14.3025 11.6101 15.04 9.82954 15.04 7.97302C15.04 6.11651 14.3025 4.33607 12.9897 3.02332C11.677 1.71056 9.89649 0.973022 8.03998 0.973022L8 1.00305ZM9 3.99683C9 4.54911 8.55228 4.99683 8 4.99683C7.44771 4.99683 7 4.54911 7 3.99683C7 3.44454 7.44771 2.99683 8 2.99683C8.55228 2.99683 9 3.44454 9 3.99683ZM12 11.0037C12 11.5559 11.5523 12.0037 11 12.0037C10.4477 12.0037 10 11.5559 10 11.0037C10 10.4514 10.4477 10.0037 11 10.0037C11.5523 10.0037 12 10.4514 12 11.0037ZM5 6.00415C5.55229 6.00415 6 5.55644 6 5.00415C6 4.45187 5.55229 4.00415 5 4.00415C4.44772 4.00415 4 4.45187 4 5.00415C4 5.55644 4.44772 6.00415 5 6.00415ZM12 5.00415C12 5.55644 11.5523 6.00415 11 6.00415C10.4477 6.00415 10 5.55644 10 5.00415C10 4.45187 10.4477 4.00415 11 4.00415C11.5523 4.00415 12 4.45187 12 5.00415ZM13.0001 7.99939C13.0001 8.55167 12.5524 8.99939 12.0001 8.99939C11.4478 8.99939 11.0001 8.55167 11.0001 7.99939C11.0001 7.4471 11.4478 6.999 12 6.999C12.5524 6.999 13 7.4471 13 7.999Z" fill="#C5C5C5"/>
</svg>
